<?xml version="1.0" encoding="utf-8"?>
<!-- Generator: Adobe Illustrator 21.0.0, SVG Export Plug-In . SVG Version: 6.00 Build 0)  -->
<svg version="1.1" id="Layer_1_copy_2" xmlns="http://www.w3.org/2000/svg" xmlns:xlink="http://www.w3.org/1999/xlink" x="0px"
	 y="0px" viewBox="0 0 173 165" style="enable-background:new 0 0 173 165;" xml:space="preserve">
<style type="text/css">
	.st0{fill:#F9CE19;}
	.st1{fill:#FFD815;}
	.st2{fill:#CFAF11;}
	.st3{fill:#FFFFFF;}
	.st4{fill:#1A1A1A;}
</style>
<g id="Layer_6">
	<path class="st0" d="M123.7,76.9c1,11.5,6,14.1,11.7,13.5c5.8-0.6,9.8-7.6,9.1-15.6c-0.7-8-6-14.1-11.7-13.5
		C127.1,61.8,122.7,65.4,123.7,76.9z"/>
	<path class="st1" d="M130.3,134.7c-10.3,4.6-14.7,5.3-23.3,5.3c-55.8-0.2-37.9,1.9-34.1-13.5c7.2-29.7,2.6-30.5-11.3-25.9
		c-12.4,4.1-29.3,1.9-37.1-6.4c-11.3-11.9-14.1-42-5.3-57.8c19.9-35.3,90.9-33,111.7-4.1c20.7,28.8-7.8,58.5,7.2,94.9
		c1.2,2.8,4.1,6.8,5.3,7.9L130.3,134.7z"/>
</g>
<g id="Layer_4">
	<path class="st2" d="M109.5,93.2c-1.1,1.3-2.5,2.5-4,3.3l-1.2,0.6c-0.4,0.2-0.9,0.3-1.3,0.4l-0.3,0.1l-0.3,0.1l-0.7,0.1
		c-0.2,0-0.4,0.1-0.7,0.1l-0.7,0.1c-1.8,0.2-3.7,0-5.5-0.5c-1.8-0.5-3.5-1.4-5-2.4c-0.7-0.6-1.5-1.2-2.1-1.8c-0.3-0.3-0.7-0.7-0.9-1
		c-0.3-0.4-0.6-0.7-0.8-1.1c-0.5-0.8-1-1.6-1.4-2.4c-0.2-0.4-0.4-0.8-0.5-1.3c-0.1-0.4-0.3-0.9-0.4-1.3c-1-3.5-0.7-7.3,0.8-10.4
		c0,3.4,0.6,6.6,2,9.4c0.7,1.4,1.5,2.7,2.4,3.8c0.5,0.5,1,1.2,1.5,1.6c0.5,0.5,1.1,1,1.7,1.4c2.4,1.7,5.2,2.9,8.3,3.1
		c0.2,0,0.4,0,0.6,0.1c0.2,0,0.4,0,0.6,0l0.6,0l0.3,0l0.3,0l1.2-0.1l1.2-0.2C106.4,94.4,107.9,93.9,109.5,93.2z"/>
	<path class="st3" d="M115.2,78.9c0.8,9.1-5.6,16.9-14.3,17.5s-16.3-6.3-17.1-15.3C83,72,89.4,64.2,98.1,63.6
		C106.8,63,114.4,69.8,115.2,78.9z"/>
	<path class="st4" d="M104.9,76.2c0.6-1.4,0.3-3-0.7-4.2c-1.5-1.7-4-1.9-5.7-0.4c-1.2,1-1.6,2.6-1.2,4.1c0.3,1.5-0.6,3-2.1,3.5
		c-0.8,0.1-1.5,0.4-2.2,1c-1.7,1.5-1.8,4-0.4,5.7c1.5,1.7,4,1.9,5.7,0.4c0.1-0.1,0.2-0.2,0.3-0.3c1.4-0.9,3.3-0.7,4.4,0.6l0,0
		c0,0,0,0,0,0c1.5,1.7,4,1.9,5.7,0.4c1.7-1.5,1.8-4,0.4-5.7c-0.6-0.6-1.3-1.1-2-1.3C105.5,79.4,104.6,77.8,104.9,76.2z"/>
</g>
</svg>
